<svg xmlns="http://www.w3.org/2000/svg" aria-hidden="true" style="width:0;height:0;position:absolute;overflow:hidden"><defs><symbol id="icon-logo-main" viewBox="0 0 88 32"><path fill="#111518" d="M12.344 4.825v12.913h-3.67v-5.037H3.67v5.036H0V4.826h3.67v4.851h5.004V4.826h3.67zm13.433 7.932c0 .024-.019.313-.055.867h-7.303c.148.516.433.916.852 1.198.433.271.971.406 1.613.406.481 0 .896-.067 1.241-.203a3.62 3.62 0 0 0 1.075-.664l1.854 1.919c-.975 1.081-2.403 1.623-4.281 1.623-1.174 0-2.207-.221-3.095-.664-.89-.441-1.582-1.057-2.077-1.844-.482-.788-.723-1.679-.723-2.675 0-.984.235-1.864.704-2.638a5.066 5.066 0 0 1 1.956-1.832l.028-.013c.84-.442 1.785-.664 2.836-.664 1.001 0 1.909.21 2.726.628a4.586 4.586 0 0 1 1.927 1.789c.482.776.723 1.697.723 2.767zm-5.357-2.692c-.544 0-1.001.153-1.372.46-.359.308-.587.726-.686 1.255h4.116c-.099-.53-.334-.947-.705-1.255-.359-.307-.81-.461-1.353-.461zm7.722-6.015h3.521v13.688h-3.521V4.05zm6.552 0h3.522v13.688h-3.522V4.05z" style="fill:var(--color1,#111518)"/><path fill="#ff6b09" d="M4 27.066v3.862h-.894v-1.583H1.352v1.583H.458v-3.862h.894v1.523h1.754v-1.523H4zm4.897 3.145v.717h-2.99v-3.862h2.919v.717h-2.03v.839h1.793v.695H6.796v.894h2.102zm1.705-3.145h.894V30.2h1.937v.728h-2.83v-3.862zm4.322 0h.894V30.2h1.937v.728h-2.83v-3.862zm4.323 0h.894v3.862h-.894v-3.862zm4.072 3.929c-.305 0-.601-.041-.888-.121a2.101 2.101 0 0 1-.69-.33l.006.004.303-.673c.166.121.363.218.59.292.228.074.457.11.684.11.254 0 .441-.038.563-.11.121-.077.182-.179.182-.303v-.005c0-.09-.043-.17-.11-.221h-.001a.756.756 0 0 0-.27-.148l-.005-.001a4.362 4.362 0 0 0-.418-.115l-.035-.007a6.125 6.125 0 0 1-.766-.224l.044.014a1.199 1.199 0 0 1-.484-.335l-.001-.001c-.132-.154-.199-.361-.199-.618 0-.225.061-.427.182-.607a1.21 1.21 0 0 1 .546-.436c.247-.107.546-.16.899-.16.247 0 .488.029.723.088.236.058.441.143.618.254l-.276.679a2.13 2.13 0 0 0-1.069-.303h-.002c-.249 0-.436.041-.557.121a.372.372 0 0 0-.177.316v.004c0 .132.068.232.204.298.14.062.352.125.634.188.295.07.535.14.723.21s.348.18.48.331c.137.15.204.354.204.612 0 .221-.062.423-.188.607a1.23 1.23 0 0 1-.552.43 2.217 2.217 0 0 1-.837.161l-.065-.001h.003zm6.785-3.929v3.862h-.894v-1.583h-1.754v1.583h-.894v-3.862h.894v1.523h1.754v-1.523h.894z" style="fill:var(--color2,#ff6b09)"/><path fill="#111518" d="M37.557 30.211v.717h-2.99v-3.862h2.919v.717h-2.03v.839h1.793v.695h-1.794v.894h2.102zm5.246-3.145v3.862h-.734l-1.926-2.345v2.345h-.883v-3.862h.739l1.92 2.345v-2.345h.883zm4.516 1.871h.817v1.567c-.21.158-.452.279-.728.364a2.845 2.845 0 0 1-.833.127c-.401 0-.761-.085-1.081-.254a1.975 1.975 0 0 1-.75-.703l-.005-.008a1.97 1.97 0 0 1-.271-1.002v-.031.002l-.001-.051c0-.732.415-1.366 1.022-1.682l.011-.005a2.276 2.276 0 0 1 1.092-.259c.338 0 .646.056.921.171.276.114.508.279.695.497l-.574.53a1.326 1.326 0 0 0-.984-.436h-.016.001a1.38 1.38 0 0 0-.658.154c-.188.102-.34.25-.443.43l-.003.005a1.282 1.282 0 0 0-.161.646c0 .238.054.452.16.64.107.188.254.334.441.441.192.103.408.154.651.154.258 0 .49-.055.695-.166v-1.131zm2.641-1.871h.894V30.2h1.937v.728h-2.83v-3.862zm4.322 0h.894v3.862h-.894v-3.862zm4.073 3.929c-.305 0-.601-.041-.888-.121a2.121 2.121 0 0 1-.69-.33l.006.004.303-.673c.166.121.362.218.59.292s.456.11.684.11c.254 0 .441-.038.563-.11.121-.077.182-.179.182-.303v-.005c0-.09-.043-.17-.11-.22h-.001a.752.752 0 0 0-.271-.148l-.005-.001a4.362 4.362 0 0 0-.418-.115l-.035-.007a6.193 6.193 0 0 1-.767-.224l.044.014a1.199 1.199 0 0 1-.484-.335l-.001-.001c-.132-.154-.199-.361-.199-.618 0-.225.061-.427.182-.607a1.21 1.21 0 0 1 .546-.436c.247-.107.546-.16.899-.16.247 0 .488.029.723.088.236.058.441.143.618.254l-.276.679a2.13 2.13 0 0 0-1.069-.303h-.002c-.25 0-.436.041-.557.121a.372.372 0 0 0-.177.316v.004c0 .132.068.232.204.298.14.062.352.125.634.188.29.066.531.138.766.224l-.044-.014c.188.07.348.18.48.331.136.15.204.354.204.612 0 .221-.062.423-.188.607a1.23 1.23 0 0 1-.552.43 2.217 2.217 0 0 1-.837.161l-.065-.001h.003zm6.785-3.929v3.862h-.894v-1.583h-1.754v1.583h-.894v-3.862h.894v1.523h1.754v-1.523h.894zm8.013-12.151v2.822H62.736V4.824h10.176v2.823h-6.543v2.176h5.764v2.731h-5.764v2.361h6.784zM88.276 4.824v12.913h-3.021l-5.727-6.88v6.88h-3.597V4.824h3.022l5.727 6.881V4.824h3.596z" style="fill:var(--color1,#111518)"/><path fill="#ff6b09" d="M57.546 11.037c-.19-.423-.45-.839-.833-1.319-.963-1.206-1.258-3.896-1.261-3.922a.327.327 0 0 0-.223-.274l-.002-.001a.33.33 0 0 0-.346.094c-1.15 1.28-.666 3.257-.405 4.047.072.216.15.471.205.728.425 2.087-.395 3.032-.588 3.222-.186.052-.313.026-.43-.099-.406-.441-.541-1.89-.351-3.777a3.84 3.84 0 0 0-.025-1.052c-.399-2.318-1.865-3.807-2.239-4.328-1.026-1.51-1.13-4.021-1.133-4.044a.315.315 0 0 0-.178-.276l-.002-.001a.324.324 0 0 0-.332.022l.001-.001c-1.71 1.159-1.565 3.948-1.325 5.506.055.361.163.728.349 1.192.664 1.662-.13 3.807-.137 3.826s-.013.035-.017.055c-.1.529-.27.844-.46.844a.218.218 0 0 1-.063-.009h.002c-.232-.049-.353-.295-.356-.508-.013-2.75-2.787-3.676-2.817-3.686s-.064-.016-.1-.016a.323.323 0 0 0-.246.112.313.313 0 0 0-.044.356l-.001-.002c.033.068.137.364.066 1.412a12.01 12.01 0 0 1-.538 2.852l.023-.085a13.114 13.114 0 0 0-.548 4.29l-.001-.023c.508 5.492 8.445 6.455 13.155 3.36.515-.339.938-.726 1.247-1.151 1.739-2.387.717-5.628-.044-7.35zm-12.073 5.247v.016a.323.323 0 0 1-.307.323h-.024a.325.325 0 0 1-.324-.302v-.001a11.421 11.421 0 0 1 .016-1.539l-.002.039a.33.33 0 0 1 .351-.3h-.001a.325.325 0 0 1 .305.325l-.001.021v-.001a10.011 10.011 0 0 0-.011 1.448l-.001-.029zm.16-2.858a.324.324 0 0 1-.321.285h-.002c-.013 0-.026 0-.043-.003a.326.326 0 0 1-.285-.36v.002l.158-1.245a.33.33 0 0 1 .327-.283l.04.002h-.002c.18.022.308.184.285.361l-.157 1.242zm9.703-9.014a.324.324 0 0 1-.272-.369v.002c.02-.13.138-.801.459-1.139a.327.327 0 0 1 .462-.014.317.317 0 0 1 .015.455c-.136.143-.252.552-.29.796a.327.327 0 0 1-.375.269h.002zM43.424 6.018c-.063-.239-.218-.636-.367-.765a.32.32 0 0 1-.03-.455.326.326 0 0 1 .462-.029c.353.305.536.96.569 1.089a.32.32 0 0 1-.233.391h-.002a.328.328 0 0 1-.397-.23l-.001-.002z" style="fill:var(--color2,#ff6b09)"/></symbol><symbol id="icon-logo-revers" viewBox="0 0 88 32"><path fill="#fff" d="M12.344 4.825v12.913h-3.67v-5.037H3.67v5.036H0V4.826h3.67v4.851h5.004V4.826h3.67zm13.433 7.932c0 .024-.019.313-.055.867h-7.303c.148.516.433.916.852 1.198.433.271.971.406 1.613.406.481 0 .896-.067 1.241-.203a3.62 3.62 0 0 0 1.075-.664l1.854 1.919c-.975 1.081-2.403 1.623-4.281 1.623-1.174 0-2.207-.221-3.095-.664-.89-.441-1.582-1.057-2.077-1.844-.482-.788-.723-1.679-.723-2.675 0-.984.235-1.864.704-2.638a5.066 5.066 0 0 1 1.956-1.832l.028-.013c.84-.442 1.785-.664 2.836-.664 1.001 0 1.909.21 2.726.628a4.586 4.586 0 0 1 1.927 1.789c.482.776.723 1.697.723 2.767zm-5.357-2.692c-.544 0-1.001.153-1.372.46-.359.308-.587.726-.686 1.255h4.116c-.099-.53-.334-.947-.705-1.255-.359-.307-.81-.461-1.353-.461zm7.722-6.015h3.521v13.688h-3.521V4.05zm6.552 0h3.522v13.688h-3.522V4.05z" style="fill:var(--color3,#fff)"/><path fill="#ff6b09" d="M4 27.066v3.862h-.894v-1.583H1.352v1.583H.458v-3.862h.894v1.523h1.754v-1.523H4zm4.897 3.145v.717h-2.99v-3.862h2.919v.717h-2.03v.839h1.793v.695H6.796v.894h2.102zm1.705-3.145h.894V30.2h1.937v.728h-2.83v-3.862zm4.322 0h.894V30.2h1.937v.728h-2.83v-3.862zm4.323 0h.894v3.862h-.894v-3.862zm4.072 3.929c-.305 0-.601-.041-.888-.121a2.101 2.101 0 0 1-.69-.33l.006.004.303-.673c.166.121.363.218.59.292.228.074.457.11.684.11.254 0 .441-.038.563-.11.121-.077.182-.179.182-.303v-.005c0-.09-.043-.17-.11-.221h-.001a.756.756 0 0 0-.27-.148l-.005-.001a4.362 4.362 0 0 0-.418-.115l-.035-.007a6.125 6.125 0 0 1-.766-.224l.044.014a1.199 1.199 0 0 1-.484-.335l-.001-.001c-.132-.154-.199-.361-.199-.618 0-.225.061-.427.182-.607a1.21 1.21 0 0 1 .546-.436c.247-.107.546-.16.899-.16.247 0 .488.029.723.088.236.058.441.143.618.254l-.276.679a2.13 2.13 0 0 0-1.069-.303h-.002c-.249 0-.436.041-.557.121a.372.372 0 0 0-.177.316v.004c0 .132.068.232.204.298.14.062.352.125.634.188.295.07.535.14.723.21s.348.18.48.331c.137.15.204.354.204.612 0 .221-.062.423-.188.607a1.23 1.23 0 0 1-.552.43 2.217 2.217 0 0 1-.837.161l-.065-.001h.003zm6.785-3.929v3.862h-.894v-1.583h-1.754v1.583h-.894v-3.862h.894v1.523h1.754v-1.523h.894z" style="fill:var(--color2,#ff6b09)"/><path fill="#fff" d="M37.557 30.211v.717h-2.99v-3.862h2.919v.717h-2.03v.839h1.793v.695h-1.794v.894h2.102zm5.246-3.145v3.862h-.734l-1.926-2.345v2.345h-.883v-3.862h.739l1.92 2.345v-2.345h.883zm4.516 1.871h.817v1.567c-.21.158-.452.279-.728.364a2.845 2.845 0 0 1-.833.127c-.401 0-.761-.085-1.081-.254a1.975 1.975 0 0 1-.75-.703l-.005-.008a1.97 1.97 0 0 1-.271-1.002v-.031.002l-.001-.051c0-.732.415-1.366 1.022-1.682l.011-.005a2.276 2.276 0 0 1 1.092-.259c.338 0 .646.056.921.171.276.114.508.279.695.497l-.574.53a1.326 1.326 0 0 0-.984-.436h-.016.001a1.38 1.38 0 0 0-.658.154c-.188.102-.34.25-.443.43l-.003.005a1.282 1.282 0 0 0-.161.646c0 .238.054.452.16.64.107.188.254.334.441.441.192.103.408.154.651.154.258 0 .49-.055.695-.166v-1.131zm2.641-1.871h.894V30.2h1.937v.728h-2.83v-3.862zm4.322 0h.894v3.862h-.894v-3.862zm4.073 3.929c-.305 0-.601-.041-.888-.121a2.121 2.121 0 0 1-.69-.33l.006.004.303-.673c.166.121.362.218.59.292s.456.11.684.11c.254 0 .441-.038.563-.11.121-.077.182-.179.182-.303v-.005c0-.09-.043-.17-.11-.22h-.001a.752.752 0 0 0-.271-.148l-.005-.001a4.362 4.362 0 0 0-.418-.115l-.035-.007a6.193 6.193 0 0 1-.767-.224l.044.014a1.199 1.199 0 0 1-.484-.335l-.001-.001c-.132-.154-.199-.361-.199-.618 0-.225.061-.427.182-.607a1.21 1.21 0 0 1 .546-.436c.247-.107.546-.16.899-.16.247 0 .488.029.723.088.236.058.441.143.618.254l-.276.679a2.13 2.13 0 0 0-1.069-.303h-.002c-.25 0-.436.041-.557.121a.372.372 0 0 0-.177.316v.004c0 .132.068.232.204.298.14.062.352.125.634.188.29.066.531.138.766.224l-.044-.014c.188.07.348.18.48.331.136.15.204.354.204.612 0 .221-.062.423-.188.607a1.23 1.23 0 0 1-.552.43 2.217 2.217 0 0 1-.837.161l-.065-.001h.003zm6.785-3.929v3.862h-.894v-1.583h-1.754v1.583h-.894v-3.862h.894v1.523h1.754v-1.523h.894zm8.013-12.151v2.822H62.736V4.824h10.176v2.823h-6.543v2.176h5.764v2.731h-5.764v2.361h6.784zM88.276 4.824v12.913h-3.021l-5.727-6.88v6.88h-3.597V4.824h3.022l5.727 6.881V4.824h3.596z" style="fill:var(--color3,#fff)"/><path fill="#ff6b09" d="M57.546 11.037c-.19-.423-.45-.839-.833-1.319-.963-1.206-1.258-3.896-1.261-3.922a.327.327 0 0 0-.223-.274l-.002-.001a.33.33 0 0 0-.346.094c-1.15 1.28-.666 3.257-.405 4.047.072.216.15.471.205.728.425 2.087-.395 3.032-.588 3.222-.186.052-.313.026-.43-.099-.406-.441-.541-1.89-.351-3.777a3.84 3.84 0 0 0-.025-1.052c-.399-2.318-1.865-3.807-2.239-4.328-1.026-1.51-1.13-4.021-1.133-4.044a.315.315 0 0 0-.178-.276l-.002-.001a.324.324 0 0 0-.332.022l.001-.001c-1.71 1.159-1.565 3.948-1.325 5.506.055.361.163.728.349 1.192.664 1.662-.13 3.807-.137 3.826s-.013.035-.017.055c-.1.529-.27.844-.46.844a.218.218 0 0 1-.063-.009h.002c-.232-.049-.353-.295-.356-.508-.013-2.75-2.787-3.676-2.817-3.686s-.064-.016-.1-.016a.323.323 0 0 0-.246.112.313.313 0 0 0-.044.356l-.001-.002c.033.068.137.364.066 1.412a12.01 12.01 0 0 1-.538 2.852l.023-.085a13.114 13.114 0 0 0-.548 4.29l-.001-.023c.508 5.492 8.445 6.455 13.155 3.36.515-.339.938-.726 1.247-1.151 1.739-2.387.717-5.628-.044-7.35zm-12.073 5.247v.016a.323.323 0 0 1-.307.323h-.024a.325.325 0 0 1-.324-.302v-.001a11.421 11.421 0 0 1 .016-1.539l-.002.039a.33.33 0 0 1 .351-.3h-.001a.325.325 0 0 1 .305.325l-.001.021v-.001a10.011 10.011 0 0 0-.011 1.448l-.001-.029zm.16-2.858a.324.324 0 0 1-.321.285h-.002c-.013 0-.026 0-.043-.003a.326.326 0 0 1-.285-.36v.002l.158-1.245a.33.33 0 0 1 .327-.283l.04.002h-.002c.18.022.308.184.285.361l-.157 1.242zm9.703-9.014a.324.324 0 0 1-.272-.369v.002c.02-.13.138-.801.459-1.139a.327.327 0 0 1 .462-.014.317.317 0 0 1 .015.455c-.136.143-.252.552-.29.796a.327.327 0 0 1-.375.269h.002zM43.424 6.018c-.063-.239-.218-.636-.367-.765a.32.32 0 0 1-.03-.455.326.326 0 0 1 .462-.029c.353.305.536.96.569 1.089a.32.32 0 0 1-.233.391h-.002a.328.328 0 0 1-.397-.23l-.001-.002z" style="fill:var(--color2,#ff6b09)"/></symbol><symbol id="icon-burger-menu" xmlns="http://www.w3.org/2000/svg" viewBox="0 0 21 14"><path stroke-width="2" d="M0 1h20.5M0 7h20.5M0 13h20.5"/></symbol><symbol id="icon-burger-menu-close" xmlns="http://www.w3.org/2000/svg" viewBox="0 0 21 21"><path stroke-width="2" d="M1 17 17 1m0 16L1 1"/></symbol><symbol id="icon-campfire-bg" viewBox="0 0 28 32"><path d="M28.799 21.831c-.373-.836-.887-1.659-1.639-2.609-1.896-2.386-2.474-7.706-2.481-7.757a.642.642 0 0 0-.64-.573.652.652 0 0 0-.484.215v.001c-2.262 2.533-1.311 6.443-.797 8.006.141.427.296.931.405 1.442.835 4.127-.778 5.996-1.157 6.373-.366.102-.617.051-.848-.198-.797-.874-1.06-3.738-.688-7.47a7.66 7.66 0 0 0-.051-2.08c-.786-4.587-3.668-7.529-4.402-8.561-2.018-2.985-2.224-7.955-2.23-7.999a.641.641 0 0 0-1.002-.504c-3.368 2.29-3.078 7.808-2.609 10.889.109.714.321 1.442.688 2.36 1.305 3.285-.257 7.527-.27 7.566s-.026.07-.032.108c-.199 1.046-.533 1.671-.906 1.671a.428.428 0 0 1-.122-.019c-.456-.096-.694-.581-.7-1.002-.026-5.441-5.482-7.272-5.54-7.291a.64.64 0 0 0-.681.191.627.627 0 0 0-.09.702c.064.134.27.721.128 2.794a23.848 23.848 0 0 1-1.009 5.473C.344 27.795.55 31.807.562 31.998c.998 10.864 16.609 12.768 25.873 6.647 1.015-.67 1.844-1.435 2.455-2.277 3.419-4.721 1.407-11.131-.09-14.538zM5.053 32.21a.637.637 0 0 1-.604.67H4.41a.64.64 0 0 1-.643-.6 22.933 22.933 0 0 1 .026-2.966.644.644 0 0 1 1.286.09 20.55 20.55 0 0 0-.026 2.807zm.315-5.652a.637.637 0 0 1-.636.561c-.026 0-.051 0-.084-.006a.643.643 0 0 1-.559-.708l.308-2.462a.65.65 0 0 1 .72-.555.64.64 0 0 1 .559.714l-.308 2.456zM24.451 8.727A.638.638 0 0 1 23.914 8c.04-.259.272-1.586.902-2.253a.645.645 0 0 1 1.111.436.634.634 0 0 1-.174.437c-.267.283-.494 1.091-.57 1.575a.643.643 0 0 1-.733.533zM1.023 11.905C.9 11.431.594 10.648.301 10.393c-.267-.232-.294-.635-.06-.9s.639-.292.907-.059c.692.603 1.054 1.901 1.12 2.154a.638.638 0 0 1-.462.776.644.644 0 0 1-.783-.459z"/></symbol><symbol id="icon-instagram" viewBox="0 0 32 32"><path d="M31.452 5.724A5.834 5.834 0 0 0 26.302.55l-.026-.002C23.193.199 19.62 0 16 0S8.807.199 5.29.587l.434-.039A5.834 5.834 0 0 0 .55 5.698l-.002.026C.199 8.807 0 12.38 0 16s.199 7.193.587 10.71l-.039-.434a5.834 5.834 0 0 0 5.15 5.174l.026.002c6.844.73 13.708.73 20.552 0a5.834 5.834 0 0 0 5.174-5.15l.002-.026c.73-6.844.73-13.708 0-20.552z" style="fill:var(--color4,#000)"/><path d="M29.712 6.881a5.178 5.178 0 0 0-4.57-4.59l-.023-.002a85.795 85.795 0 0 0-18.238 0A5.178 5.178 0 0 0 2.29 6.857l-.002.023a85.795 85.795 0 0 0 0 18.238 5.179 5.179 0 0 0 4.57 4.592l.023.002a85.795 85.795 0 0 0 18.238 0 5.177 5.177 0 0 0 4.59-4.57l.002-.023a85.663 85.663 0 0 0 0-18.238z" style="fill:var(--color4,#000)"/><path d="M.48 25.613c.022.222.044.442.068.664a5.834 5.834 0 0 0 5.15 5.174l.026.002c6.844.73 13.709.73 20.552 0a5.834 5.834 0 0 0 5.174-5.15l.002-.026.069-.664H.48z" style="fill:var(--color4,#000)"/><path d="M31.452 26.276c.392-3.678.574-7.36.544-11.043l-7.314-7.314c-.914-1.043-2.25-1.694-3.818-1.751a140.959 140.959 0 0 0-9.931.007l.244-.007c-2.68.093-4.553 1.894-5.034 4.54-.085.468-.135.941-.202 1.412v7.759c.037.251.091.502.108.754.107 1.61.768 2.989 1.828 3.922l7.443 7.443a96.525 96.525 0 0 0 10.954-.546 5.834 5.834 0 0 0 5.174-5.15l.002-.026z" style="fill:var(--color4,#000)"/><path d="M31.452 26.277a5.836 5.836 0 0 1-5.15 5.174l-.026.002c-3.647.389-7.301.57-10.954.544L7.89 24.565c.862.755 1.985 1.214 3.288 1.263 3.225.121 6.462.118 9.686.002 2.917-.106 5.028-2.264 5.119-5.182.097-3.097.097-6.202 0-9.299-.042-1.346-.514-2.53-1.297-3.426l7.31 7.31a96.729 96.729 0 0 1-.545 11.044z" style="fill:var(--color4,#000)"/><path d="M19.776 12.534a5.126 5.126 0 1 0-7.246 7.238l.004.004 11.858 11.859a92.098 92.098 0 0 0 1.882-.182 5.836 5.836 0 0 0 5.174-5.15l.002-.026c.066-.627.128-1.255.182-1.882L19.774 12.536zm12.162 6.913-9.544-9.544a1.218 1.218 0 0 0-2.196.729c0 .398.191.752.486.975l.003.002 11.08 11.08c.074-1.08.131-2.162.17-3.242z" style="fill:var(--color4,#000)"/><path d="M5.943 12.119c.066-.471.117-.944.202-1.411.48-2.647 2.354-4.448 5.034-4.54 3.226-.111 6.462-.117 9.686 0 2.916.104 5.028 2.264 5.119 5.181a149.62 149.62 0 0 1-.006 9.536l.006-.237c-.091 2.918-2.202 5.076-5.118 5.182-3.226.116-6.462.119-9.687-.002-2.916-.11-4.933-2.274-5.128-5.195-.016-.253-.07-.504-.107-.755V12.12zm10.059 11.982c1.476 0 2.954.044 4.428-.01 2.311-.086 3.733-1.465 3.786-3.774.067-2.877.067-5.758 0-8.635-.054-2.309-1.476-3.72-3.786-3.77a215.92 215.92 0 0 0-9.029.004l.229-.004c-2.293.048-3.719 1.431-3.781 3.714a159.39 159.39 0 0 0 0 8.746c.062 2.283 1.488 3.634 3.781 3.719 1.456.054 2.914.01 4.372.01z" style="fill:var(--color4,#000)"/><path fill="#fff" d="M5.943 12.119c.066-.471.117-.944.202-1.411.48-2.647 2.354-4.448 5.034-4.54 3.226-.111 6.462-.117 9.686 0 2.916.104 5.028 2.264 5.119 5.181a149.62 149.62 0 0 1-.006 9.536l.006-.237c-.091 2.918-2.202 5.076-5.118 5.182-3.226.116-6.462.119-9.687-.002-2.916-.11-4.933-2.274-5.128-5.195-.016-.253-.07-.504-.107-.755V12.12zm10.059 11.982c1.476 0 2.954.044 4.428-.01 2.311-.086 3.733-1.465 3.786-3.774.067-2.877.067-5.758 0-8.635-.054-2.309-1.476-3.72-3.786-3.77a215.92 215.92 0 0 0-9.029.004l.229-.004c-2.293.048-3.719 1.431-3.781 3.714a159.39 159.39 0 0 0 0 8.746c.062 2.283 1.488 3.634 3.781 3.719 1.456.054 2.914.01 4.372.01z" style="fill:var(--color3,#fff)"/><path fill="#fff" d="M16 10.874a5.126 5.126 0 0 0 0 10.252 5.126 5.126 0 0 0 0-10.252zm0 8.487a3.361 3.361 0 0 1 0-6.722 3.361 3.361 0 0 1 0 6.722zm6.644-8.72a1.22 1.22 0 0 1-2.438 0 1.22 1.22 0 0 1 2.438 0z" style="fill:var(--color3,#fff)"/></symbol><symbol id="icon-campfire" viewBox="0 0 23 32"><path fill="#ff6b09" d="M21.909 16.593c-.284-.636-.675-1.261-1.247-1.984-1.442-1.813-1.883-5.856-1.888-5.895a.49.49 0 0 0-.334-.411l-.003-.001a.496.496 0 0 0-.517.14c-1.722 1.924-.997 4.896-.607 6.084.108.325.225.708.309 1.095.635 3.137-.593 4.558-.881 4.844-.278.078-.469.039-.645-.149-.606-.665-.806-2.842-.523-5.678a5.827 5.827 0 0 0-.044-1.615l.005.034c-.597-3.486-2.79-5.723-3.349-6.507C10.65 4.281 10.494.504 10.489.47a.488.488 0 0 0-.764-.382l.002-.001C7.165 1.829 7.386 6.022 7.743 8.364c.082.543.243 1.095.523 1.794.992 2.496-.196 5.721-.206 5.749a.524.524 0 0 0-.025.083c-.151.795-.405 1.269-.689 1.269a.3.3 0 0 1-.095-.015l.002.001c-.348-.073-.528-.441-.533-.761-.019-4.137-4.171-5.527-4.213-5.542a.485.485 0 0 0-.518.144l-.001.001a.474.474 0 0 0-.068.536l-.001-.003c.049.102.206.548.098 2.124a18.128 18.128 0 0 1-.803 4.288l.035-.128c-.987 3.22-.831 6.27-.821 6.415.759 8.257 12.636 9.705 19.683 5.052.772-.509 1.403-1.09 1.867-1.73 2.603-3.588 1.072-8.461-.067-11.051zM3.844 24.48l.001.025c0 .259-.203.47-.458.484h-.034a.486.486 0 0 1-.485-.454v-.001a17.442 17.442 0 0 1 .019-2.255.494.494 0 0 1 .524-.45H3.41a.488.488 0 0 1 .456.487l-.001.032v-.001a15.785 15.785 0 0 0-.02 2.133zm.24-4.295a.485.485 0 0 1-.482.427h-.003c-.019 0-.039 0-.064-.005a.488.488 0 0 1-.424-.54v.002l.235-1.872a.495.495 0 0 1 .55-.421h-.002a.488.488 0 0 1 .426.543l-.235 1.867zM18.603 6.634a.486.486 0 0 1-.409-.555v.003c.031-.197.207-1.205.687-1.713a.488.488 0 0 1 .691-.021c.196.182.207.49.021.685-.203.214-.375.829-.433 1.197a.49.49 0 0 1-.56.405h.003zM.779 9.049C.685 8.688.453 8.093.23 7.899a.483.483 0 0 1-.046-.685.49.49 0 0 1 .691-.045H.874c.527.458.802 1.444.852 1.637a.484.484 0 0 1-.349.589l-.003.001A.49.49 0 0 1 .78 9.05l-.001-.003z" style="fill:var(--color2,#ff6b09)"/></symbol><symbol id="icon-study-program" viewBox="0 0 31 32"><path d="m30.151 4.961-.001-.003a.284.284 0 0 0-.06-.09L25.284.062a.237.237 0 0 0-.039-.032l-.001-.001-.009-.005a.274.274 0 0 0-.034-.019l-.002-.001L25.187 0a.28.28 0 0 0-.098-.02l-.005-.001H3.913a.284.284 0 0 0-.284.284v29.311a.25.25 0 0 0 .006.055c.001.008.005.015.007.023l.009.03.013.025.013.023a.33.33 0 0 0 .032.04l.003.003 2.164 2.165a.283.283 0 0 0 .402 0l1.965-1.964 1.963 1.964c.051.052.122.084.201.084s.15-.032.201-.084l1.963-1.963 1.965 1.963a.285.285 0 0 0 .402 0l1.963-1.963 1.963 1.963a.283.283 0 0 0 .402 0l1.965-1.964 1.963 1.964c.051.052.122.084.201.084s.15-.032.201-.084l1.963-1.963 1.965 1.963a.283.283 0 0 0 .402 0l2.165-2.165c.005-.004.007-.009.011-.013.008-.009.017-.019.023-.029.007-.009.011-.02.017-.03l.009-.019c.006-.013.009-.027.012-.04l.005-.013a.256.256 0 0 0 .006-.057V5.069a.314.314 0 0 0-.023-.111l.001.002zM25.367.949l3.835 3.835h-3.835V.949zm4.237 28.507-1.88 1.88-1.965-1.964a.283.283 0 0 0-.402 0l-1.964 1.964-1.963-1.964a.283.283 0 0 0-.402 0l-1.965 1.964-1.963-1.964c-.051-.052-.122-.084-.201-.084s-.15.032-.201.084l-1.963 1.964-1.965-1.964a.283.283 0 0 0-.402 0l-1.963 1.964-1.964-1.964a.287.287 0 0 0-.402 0l-1.965 1.964-1.88-1.88V.547h20.603v4.522c0 .157.127.284.284.284h4.521v24.103z" style="fill:var(--color2,#ff6b09/)"/><path d="M6.314 3.234h9.303a.284.284 0 1 0 0-.568H6.313a.284.284 0 1 0 0 .568zm0 1.757h14.919a.284.284 0 1 0 0-.568H6.314a.284.284 0 1 0 0 .568zM6.03 6.568v9.199c0 .157.127.284.284.284h21.173a.284.284 0 0 0 .284-.284V6.568a.284.284 0 0 0-.284-.284H6.314a.284.284 0 0 0-.284.284zm6.279.284h14.893v2.445H12.309V6.852zm0 3.013h14.893v2.444H12.309V9.865zm0 3.012h14.893v2.605H12.309v-2.605zM6.598 6.852h5.143v2.445H6.598V6.852zm0 3.013h5.143v2.444H6.598V9.865zm0 3.012h5.143v2.605H6.598v-2.605zm20.889 4.452H6.314a.284.284 0 0 0-.284.284v9.198a.284.284 0 1 0 .568 0v-2.889h5.142v2.889a.284.284 0 1 0 .568 0v-2.889h14.893v2.889a.284.284 0 1 0 .568 0v-9.199a.283.283 0 0 0-.283-.283h-.001zM11.74 23.353H6.599V20.91h5.143v2.443zm0-3.012H6.599v-2.444h5.143v2.444zm15.462 3.012H12.309V20.91h14.893v2.443zm0-3.012H12.309v-2.444h14.893v2.444zM2.281-.021a.284.284 0 0 0-.284.284v29.311a.284.284 0 1 0 .568 0V.263a.284.284 0 0 0-.284-.284H2.28zm-1.562 0H.718a.284.284 0 0 0-.284.284v29.311a.284.284 0 1 0 .568 0V.263a.284.284 0 0 0-.283-.284z" style="fill:var(--color2,#ff6b09/)"/></symbol><symbol id="icon-audio-book" viewBox="0 0 39 32"><path fill="#ff6b09" d="M3.047 29.453h12.23a3.743 3.743 0 0 0 3.367 2.115h.801a3.737 3.737 0 0 0 3.356-2.093l.01-.022h12.237a2.288 2.288 0 0 0 2.286-2.286V5.262a2.288 2.288 0 0 0-2.286-2.285h-1.234V1.956A1.525 1.525 0 0 0 32.29.433H5.799a1.524 1.524 0 0 0-1.523 1.523v1.021H3.049A2.289 2.289 0 0 0 .762 5.262v21.905a2.288 2.288 0 0 0 2.287 2.286zm29.24-4.702H19.81V7.046c2.884.377 5.12 2.845 5.12 5.831v.687l-.18-.04a.763.763 0 0 0-.907.575l-.001.005-1.213 5.52a.763.763 0 0 0 .575.906l.005.001 2.621.578a1.946 1.946 0 0 0 2.319-1.492l.701-3.192a1.954 1.954 0 0 0-1.471-2.321l-.013-.003-.912-.201v-1.023c0-3.827-2.917-6.987-6.645-7.371V1.955h12.48l-.001 22.796zm-7.12-9.574 1.871.412a.422.422 0 0 1 .325.508l-.701 3.191a.45.45 0 0 1-.507.331l-1.873-.413.886-4.029zM5.798 1.955h12.487v3.55c-3.731.381-6.651 3.542-6.651 7.372v1.022l-.913.202a1.95 1.95 0 0 0-1.219.846l-.005.008a1.91 1.91 0 0 0-.257 1.482l-.003-.013.701 3.189a1.961 1.961 0 0 0 2.339 1.493l-.013.002 2.61-.577a.764.764 0 0 0 .579-.912l.001.005-1.213-5.519a.76.76 0 0 0-.914-.579l.005-.001-.173.038v-.685c0-2.988 2.24-5.458 5.127-5.832v17.707H5.799V1.956zm7.118 13.222.887 4.029-1.863.411a.431.431 0 0 1-.51-.325l-.001-.003-.702-3.196a.42.42 0 0 1 .056-.321l-.001.002a.427.427 0 0 1 .264-.186l.003-.001 1.867-.412zM2.285 5.262c0-.42.342-.762.762-.762h1.227v20.251a1.526 1.526 0 0 0 1.524 1.524h26.491a1.525 1.525 0 0 0 1.524-1.523V4.5h1.234c.42 0 .762.342.762.762v21.905c0 .42-.341.762-.762.762H22.293a.763.763 0 0 0-.729.539 2.226 2.226 0 0 1-2.126 1.577h-.784a2.23 2.23 0 0 1-2.13-1.571l-.004-.016a.762.762 0 0 0-.725-.529H3.048a.763.763 0 0 1-.763-.762V5.262z" style="fill:var(--color2,#ff6b09/)"/></symbol><symbol id="icon-female-student" viewBox="0 0 27 32"><path fill="#ff6b09" d="M-.102 31.759h26.785c.132-3.055-.087-8.123-1.965-10.535l-.068-.087-4.103-2.06c.089-.301.133-.576.151-.779a1.43 1.43 0 0 0-.1-.678c-.677-1.62-2.11-2.472-2.898-2.835.24-.484.395-1.003.47-1.534.456-.131.805-.489.921-.942l.002-.009.479-1.947a1.306 1.306 0 0 0-.154-1.007l.003.006a1.316 1.316 0 0 0-.292-.332l-.002-.002c1.351-3.068-.911-5.96-1.035-6.113C15.642.257 12.547.752 12.384.782c-4.467.935-6.19 4.358-5.217 8.372a1.31 1.31 0 0 0-.301 1.21l-.002-.009.481 1.949c.117.468.473.82.916.947a5.01 5.01 0 0 0 1.158 2.567l-.006-.007v1.543c-6.409 3.282-2.348 1.188-7.484 3.787-.01.048-2.41 2.599-2.053 10.158l.022.462zm25.853-.97h-4.408v-1.851l2.915-6.675c1.461 2.424 1.515 7.053 1.493 8.527zm-6.016-12.573c-.17 1.955-1.242 1.364-1.903 2.869-.52-.572-.677-1.258-.537-1.993.253-1.349-.57-1.749-.367-3.166l.031-.033v-.004c.017-.02.18-.213.227-.274 1.745.76 2.584 2.174 2.55 2.6zm-9.356-1.536c.793.56 1.779.894 2.843.894a4.946 4.946 0 0 0 2.75-.83l-.018.011c.112 1.113.547 1.337.393 2.157a3.552 3.552 0 0 0-.054.44v.01l-3.003 3.383-3.837-4.327.927-.483V16.68zm-1.207-4.14V7.367c.467-.864 1.104-1.491 1.896-1.867 2.12 1.2 4.56 2.99 6.197 4.792-.001 2.294.007 2.3-.009 2.489l-.001.012c-.127 2.083-1.84 3.811-4.037 3.811-2.136 0-3.909-1.677-4.037-3.831a2.716 2.716 0 0 1-.008-.21v-.024.001zm-.598 6.347 4.716 5.316 3.167-3.569c.072.209.173.405.29.595l-3.457 4.323-5.153-6.446.437-.22zm9.657-7.128v-1.498l.36-.413c.02.759.101-.136-.36 1.911zM12.562 1.733c.191.012 2.765-.391 4.799 1.805.08.1 1.736 2.233 1.071 4.567-.227-1.038-.624-2.369-1.251-3.003l-.685.683c.619.627 1.025 2.537 1.18 3.527-2.84-2.972-6.504-4.853-6.554-4.885-.184.114-1.735.409-2.86 2.597l-.054.105v1.608l-.142.001c-.716-3.455.655-6.199 4.497-7.004zM7.963 9.735l.244.987v1.037l-.405-1.639c-.059-.245.121-.337.161-.386zm-.71 9.814L13.29 27.1l4.085-5.109c.444.398.658.454 1.6.939l-.318-1.078c-.08-.273.239-.713.431-.914.434-.238.79-.568 1.051-.966l.007-.011 3.333 1.673-3.101 7.1v2.055H6.201v-2.055l-3.102-7.101 4.153-2.085zm-4.932 2.716 2.916 6.673v1.851H.828C.805 29.316.86 24.69 2.32 22.265z" style="fill:var(--color2,#ff6b09/)"/></symbol><symbol id="icon-group" viewBox="0 0 33 32"><path fill="#ff6b09" d="M1.993 12.558v2.831c0 .152.069.295.189.39a11.03 11.03 0 0 0 6.837 2.362c.74 0 1.481-.077 2.207-.224a11.83 11.83 0 0 0 4.873 1.032h.018-.001c1.707 0 3.351-.349 4.891-1.032 3.091.625 6.384-.046 9.042-2.138a.495.495 0 0 0 .189-.39v-2.831c0-.415-.207-.794-.575-1.027l-3.867-2.176c.845-1.073 1.476-2.602 1.585-3.913.321-2.256-1.518-4.646-4.165-4.646a4.212 4.212 0 0 0-2.948 1.227c-.027.027-.057.049-.083.077-.024.025-.043.054-.067.08l-.045.053C19.317.852 17.862 0 16.149 0c-.167 0-.33.011-.492.028-.01-.001-.018-.006-.028-.006-.092 0-.287.025-.391.055-.015.004-.027.015-.041.021a4.498 4.498 0 0 0-3.002 2.135l-.011.021A4.17 4.17 0 0 0 9.015.797h-.01.001c-3.909 0-5.642 4.612-2.557 8.581l-3.903 2.167a1.19 1.19 0 0 0-.553 1.014zm19.003 4.27c-.084.041-.167.085-.251.123l-.002.001a10.84 10.84 0 0 1-4.596 1.006h-.032.002-.025c-2.509 0-4.823-.837-6.677-2.248l.027.02v-2.87c0-.097.047-.184.102-.221l4.542-2.525c.565.48 1.287.832 2.035.832.721 0 1.499-.357 2.053-.843l4.487 2.52a.277.277 0 0 1 .131.237v2.87c-.52.395-1.108.76-1.729 1.069l-.064.029zm8.158-4.447a.202.202 0 0 1 .092.169v2.595a9.988 9.988 0 0 1-6.737 1.98c.419-.265.772-.515 1.112-.782l-.028.022a.495.495 0 0 0 .189-.39V12.86c0-.435-.218-.835-.61-1.087l-2.383-1.339.58-.321c.703.573 1.307.744 1.848.744.663 0 1.36-.325 1.878-.759l4.06 2.284zM23.216 1.788c1.38 0 2.593.902 3.021 2.142a3.698 3.698 0 0 1-2.235-1.14L24 2.788a.497.497 0 0 0-.788.082l-.001.002a3.693 3.693 0 0 1-2.525 1.757l-.022.003v-.003l.001-.079c0-.202-.012-.402-.036-.598l.002.023-.007-.066a5.31 5.31 0 0 0-.131-.647l.009.038c.563-.902 1.609-1.513 2.713-1.513zm-2.66 3.855a4.648 4.648 0 0 0 3.156-1.751l.008-.01a4.684 4.684 0 0 0 2.702 1.056c-.007 1.792-1.471 4.927-3.207 4.927-1.337 0-2.478-1.912-2.905-3.238a8.15 8.15 0 0 0 .245-.983zm.1 3.73-.885.491-.895-.503c.331-.413.636-.893.896-1.413.251.527.551 1.01.885 1.425zM19.32 6.465c-.478 1.427-1.705 3.49-3.199 3.49-1.742 0-3.225-2.864-3.508-4.696.075-.019 2.429.127 4.049-2.001.822.688 1.931 1.143 3.011 1.188.013.647-.144 1.407-.352 2.019zM16.15.991c2.78 0 3.309 2.393 3.353 2.443a4.124 4.124 0 0 1-2.561-1.274l-.002-.002a.494.494 0 0 0-.788.085l-.001.002a4.08 4.08 0 0 1-3.52 2.022h-.063.003c.136-1.822 1.596-3.274 3.58-3.274zm-3.689 6.947c.257.515.563 1.007.913 1.439l-.876.487-.907-.51c.344-.439.636-.929.869-1.415zm-3.454-6.15a3.18 3.18 0 0 1 2.729 1.514c-.029.1-.107.498-.117.548a3.682 3.682 0 0 1-1.818-1.061l-.002-.002a.494.494 0 0 0-.787.085l-.001.002a3.717 3.717 0 0 1-3.177 1.815h-.001c.158-1.627 1.518-2.9 3.173-2.9zM5.875 5.677A4.699 4.699 0 0 0 9.51 3.891l.007-.01c.57.468 1.264.806 2.026.956l.029.005c.029.575.179 1.273.351 1.789-.274.84-.799 1.84-1.451 2.505-.005.004-.01.006-.013.01-.408.43-.989.719-1.445.719-1.593 0-2.841-2.508-3.14-4.188zm-2.89 6.881c0-.075.033-.139.067-.162l4.117-2.284c.247.206.303.229.353.265.484.323.928.483 1.533.483.645 0 1.233-.273 1.749-.694.029-.023.061-.045.089-.068l.587.33-2.446 1.361a1.271 1.271 0 0 0-.584 1.069v3.118c0 .152.07.295.19.389.317.249.727.539 1.083.761a10.017 10.017 0 0 1-6.737-1.98v-2.587z" style="fill:var(--color2,#ff6b09/)"/><path fill="#ff6b09" d="M31.259 20.781a2.042 2.042 0 0 0-1.102-.319c-.329 0-.641.077-.917.215l.012-.005-6.12 2.956a2.11 2.11 0 0 0-2.106-2.071l-3.51.001c-1.73-1.504-3.941-2.425-5.952-2.473-1.983-.047-3.762-.06-4.592-.064v-1.002H0v11.517h6.972v-1.379c1.911 1.097 6.939 3.845 9.325 3.845.053 0 .107-.001.157-.004 4.196-.235 14.091-7.199 14.743-7.661a2.083 2.083 0 0 0 1.034-1.795v-.006a2.06 2.06 0 0 0-.965-1.747l-.009-.005zM5.98 28.543H.992V19.01H5.98v9.533zm24.707-5.058a.303.303 0 0 0-.044.028l.001-.001c-.103.073-10.281 7.271-14.245 7.493a2.179 2.179 0 0 1-.12.003c-2.093 0-7.195-2.753-9.307-4.001V20.01c.827.003 2.596.017 4.569.064 1.837.044 3.876.921 5.455 2.345l.141.128 3.888-.001a1.119 1.119 0 0 1 0 2.238h-7.142v.992h7.142c.685 0 1.288-.333 1.673-.84l6.984-3.373a1.052 1.052 0 0 1 1.053.06l-.004-.003c.323.202.508.537.508.918a1.087 1.087 0 0 1-.548.943l-.005.003zM16.611 12.159h-.991v.919h.991v-.92zm0 1.833h-.991v.92h.991v-.92zm0 1.835h-.991v.919h.991v-.92z" style="fill:var(--color2,#ff6b09/)"/></symbol><symbol id="icon-insurance" viewBox="0 0 28 32"><path fill="#ff6b09" d="M.542 13.742c0 .357-.542.357-.542 0C0 6.154 6.154 0 13.742 0c7.591 0 13.742 6.154 13.742 13.742 0 .357-.538.357-.538 0 0-5.129-8.429-5.132-8.429 0 0 .357-.555.357-.555 0 0-5.116-8.441-5.116-8.441 0 0 .357-.555.357-.555 0 0-5.107-8.425-5.142-8.425 0zm8.473-1.992c.147-2.952.61-5.599 1.285-7.62.539-1.607 1.22-2.826 1.992-3.511C6.498 1.252 1.807 5.644.759 11.341c1.995-2.877 6.602-2.647 8.257.409zm8.906-.133c-.149-2.838-.6-5.378-1.249-7.315-1.673-5.013-4.185-5.013-5.859 0-.649 1.937-1.097 4.477-1.249 7.315 1.801-3.059 6.557-3.059 8.357 0zm8.804-.276C25.68 5.644 20.989 1.252 15.192.62c.775.685 1.453 1.905 1.992 3.511.675 2.021 1.139 4.668 1.285 7.62 1.665-3.072 6.284-3.253 8.257-.409zM11.939 20.03v-2.791c-.503.334-.899.85-.899 1.48 0 .613.402 1.019.899 1.311zm.541.867c-.963-.441-1.979-.957-1.979-2.178 0-1.259.957-1.888 1.979-2.359v4.536zm3.066 3.343v2.823c.509-.338.908-.857.908-1.487 0-.619-.409-1.037-.909-1.336zm-.539-.869c.967.447 1.989.98 1.989 2.206 0 1.262-.963 1.891-1.989 2.359v-4.565z" style="fill:var(--color2,#ff6b09/)"/><path fill="#ff6b09" d="M15.546 14.063c2.219.513 4.5 2.173 4.5 4.655 0 2.125-3.592 2.047-3.592 0 0-.633-.399-1.151-.908-1.486v3.971c2.053.671 4.506 1.875 4.506 4.373 0 2.485-2.281 4.143-4.507 4.652-.009 2.365-3.6 2.361-3.607-.003-1.265-.292-2.365-.883-3.16-1.664-.833-.825-1.327-1.859-1.327-2.985 0-2.092 3.588-2.092 3.588 0 0 .627.395 1.142.899 1.477v-3.968c-2.037-.659-4.503-1.898-4.503-4.373 0-2.485 2.281-4.143 4.503-4.652.009-2.365 3.601-2.362 3.607.003zm-3.066.007v.431c-2.112.419-4.506 1.771-4.506 4.211 0 2.346 2.628 3.397 4.507 3.977v5.243c-1.016-.464-1.98-1.09-1.98-2.355 0-1.382-2.511-1.382-2.511 0 0 .977.435 1.879 1.168 2.599.931.921 2.06 1.36 3.322 1.609v.435c0 1.665 2.527 1.665 2.527 0v-.431c2.119-.422 4.503-1.775 4.503-4.211 0-2.368-2.621-3.387-4.503-3.98v-5.24c1.019.464 1.989 1.091 1.989 2.362 0 1.347 2.508 1.401 2.508 0 0-2.436-2.381-3.793-4.497-4.214v-.435c0-1.665-2.527-1.665-2.527 0z" style="fill:var(--color2,#ff6b09/)"/></symbol><symbol id="icon-mobile-learning" viewBox="0 0 33 32"><path fill="#ff6b09" d="M30.175-.128H14.429a1.861 1.861 0 0 0-1.859 1.859V8.25L.872 13.159a.382.382 0 0 0-.051.678l.002.001 1.492.893v9.516A1.722 1.722 0 0 0 .98 25.92v.917c0 .211.17.381.381.381h2.671a.38.38 0 0 0 .381-.381v-.917a1.72 1.72 0 0 0-1.337-1.673v-9.06l1.18.706c-.036.272-.005-.474-.017 4.43 0 1.612 4.129 2.476 8.33 2.525v7.425c0 1.025.832 1.856 1.857 1.856h15.747a1.859 1.859 0 0 0 1.857-1.857c0 .051-.002-1.573 0-28.539a1.87 1.87 0 0 0-1.856-1.859zM3.652 25.918v.537h-1.91v-.537c0-.528.428-.957.953-.957.528 0 .957.43.957.957zm26.523 5.446H14.429c-.378 0-.711-.191-.909-.481a1.081 1.081 0 0 1-.187-.61v-2.576h17.934v2.575c0 .596-.497 1.092-1.092 1.092zm1.092-4.429H13.332v-4.086c2.051-.023 8.335-.475 8.335-2.527-.002-3.08.005-4.33-.01-4.436l3.421-2.049a.382.382 0 0 0-.046-.676l-.002-.001-11.698-4.91V5.068h17.935v21.868zm-18.316-9.143c-2.113 0-6.181.273-7.949 1.427.012-3.53-.123-3.3.313-3.6 1.098-.808 4.238-1.373 7.636-1.373 1.483 0 7.954.407 7.954 1.777v3.196c-1.784-1.165-5.832-1.428-7.954-1.428zm.382-16.061A1.096 1.096 0 0 1 14.428.637h15.746c.604 0 1.093.498 1.093 1.095v2.574H13.333V1.732zm-.381 7.184 11.09 4.655-2.748 1.644c-1.461-1.449-6.294-1.729-8.342-1.729-2.051 0-6.883.281-8.342 1.729L1.861 13.57l11.091-4.655zm-7.95 11.406c0-.616 2.73-1.768 7.949-1.768 5.222 0 7.954 1.151 7.954 1.767s-2.732 1.768-7.954 1.768c-5.219 0-7.949-1.151-7.949-1.768z" style="fill:var(--color2,#ff6b09/)"/><path fill="#ff6b09" d="M22.301 28.271a1.261 1.261 0 0 0 0 2.521 1.261 1.261 0 0 0 0-2.52zm0 1.759a.5.5 0 0 1-.001-.996h.001a.498.498 0 0 1 0 .996zm1.454-27.94h-2.907v.761h2.907V2.09z" style="fill:var(--color2,#ff6b09/)"/></symbol><symbol id="icon-open-book" viewBox="0 0 46 32"><path fill="#fff" d="M20.267 4.608H6.627v1.021h13.64V4.608zm0 3.808H8.669v1.021h11.597V8.416zm0 3.808H6.627v1.021h13.64v-1.021zm0 3.808H8.669v1.021h11.597v-1.021zm0 3.808H6.627v1.021h13.64V19.84zm0 3.808H8.669v1.021h11.597v-1.021zM38.99 4.608H25.35v1.021h13.64V4.608zm-2.043 3.808H25.35v1.021h11.597V8.416zm2.043 3.808H25.35v1.021h13.64v-1.021zm-2.043 3.808H25.35v1.021h11.597v-1.021zm2.043 3.808H25.35v1.021h13.64V19.84zm-2.043 3.808H25.35v1.021h11.597v-1.021z" style="fill:var(--color3,#fff/)"/><path fill="#fff" d="M43.915 3.445h-1.872V.633a.511.511 0 0 0-.511-.511H26.25a3.95 3.95 0 0 0-3.431 1.991l-.01.019A3.955 3.955 0 0 0 19.368.121H4.086a.511.511 0 0 0-.511.511v2.812H1.702a.511.511 0 0 0-.511.511v27.411c0 .282.229.511.511.511h42.213a.51.51 0 0 0 .51-.511V3.955a.511.511 0 0 0-.511-.511zM26.267 1.144H41.02v27.349H25.178c-.703 0-1.405.296-1.859.68V4.076a2.932 2.932 0 0 1 2.932-2.932h.015-.001zm-21.672 0h14.774a2.924 2.924 0 0 1 2.922 2.824v.005c.001.022.003.091.007.113v25.087a2.987 2.987 0 0 0-1.852-.678H4.595V1.145zM2.213 4.467h1.362v24.538c0 .282.229.511.511.511h16.36c.779 0 1.531.511 1.772 1.341H2.213V4.468zm41.192 26.389H23.4a1.85 1.85 0 0 1 1.775-1.341h16.357a.511.511 0 0 0 .511-.511V4.466h1.361v26.389z" style="fill:var(--color3,#fff/)"/></symbol><symbol id="icon-phone" viewBox="0 0 33 32"><path fill="#ff6b09" d="M4.818.002a2.068 2.068 0 0 0-1.439.672l-.001.002L.693 3.629c.004-.009-.011-.008-.086.099a.62.62 0 0 0-.092.179l-.001.005C-.578 7.392.154 11.22 1.937 14.86c1.785 3.641 4.63 7.125 7.897 9.984 3.266 2.859 6.953 5.096 10.467 6.206 3.516 1.109 6.923 1.095 9.449-.737a.56.56 0 0 0 .077-.067c.066-.066.068-.075.057-.065l2.681-2.95c.333-.369.537-.86.537-1.399 0-.608-.26-1.156-.675-1.538l-6.337-5.765a2.088 2.088 0 0 0-2.938.136l-2.868 3.154c-2.328-.673-4.318-1.816-6.231-3.556-1.913-1.741-3.24-3.615-4.13-5.869l2.866-3.153a2.08 2.08 0 0 0 .538-1.4c0-.608-.259-1.155-.674-1.537L6.314.538A2.064 2.064 0 0 0 4.81.003h.005zm.059 1.293.03-.001c.205 0 .392.08.53.21l6.337 5.763a.759.759 0 0 1 .051 1.097l-3.169 3.482a.648.648 0 0 0-.127.665l-.001-.005c.961 2.624 2.513 4.778 4.647 6.719 2.135 1.942 4.423 3.283 7.126 3.992a.65.65 0 0 0 .648-.192v-.001l3.169-3.482a.759.759 0 0 1 1.097-.051l6.338 5.763a.759.759 0 0 1 .051 1.097l-2.649 2.913c-2.072 1.486-4.992 1.57-8.262.537-3.283-1.036-6.846-3.182-9.999-5.942s-5.898-6.131-7.585-9.574C1.439 10.878.834 7.433 1.752 4.397l2.589-2.845a.772.772 0 0 1 .535-.259h.002z" style="fill:var(--color2,#ff6b09/)"/></symbol><symbol id="icon-rectangle" viewBox="0 0 31 32"><path fill="none" stroke="#ff6b09" stroke-width=".615" d="M31.077 4.615V.307H.308v31.385h30.769v-4.308" style="stroke:var(--color2,#ff6b09/)"/></symbol><symbol id="icon-left-arrow" viewBox="0 0 54 32"><path fill="#ff6b09" d="M52 14a2 2 0 1 1 0 4v-4zM.586 17.414C.224 17.052 0 16.552 0 16s.224-1.052.586-1.414L13.314 1.858a2 2 0 0 1 2.825 2.829l.001-.001L4.828 16l11.314 11.314a2 2 0 1 1-2.827 2.829l-.001-.001L.586 17.414zM52 18H2v-4h50v4z" style="fill:var(--color2,#ff6b09)"/></symbol><symbol id="icon-right-arrow" viewBox="0 0 54 32"><path fill="#ff6b09" d="M2 14a2 2 0 1 0 0 4v-4zm51.414 3.414c.362-.362.586-.862.586-1.414s-.224-1.052-.586-1.414L40.686 1.858a2 2 0 1 0-2.829 2.827l.001.001L49.172 16 37.858 27.314a2 2 0 0 0 2.829 2.827l-.001.001 12.728-12.728zM2 18h50v-4H2v4z" style="fill:var(--color2,#ff6b09)"/></symbol><symbol id="icon-vk" viewBox="0 0 32 32"><path fill="#436eab" d="M27.541 18.46c1.06 1.037 2.181 2.012 3.133 3.153.421.507.819 1.029 1.123 1.618.432.836.042 1.757-.709 1.807l-4.661-.002c-1.202.099-2.161-.384-2.969-1.206-.645-.658-1.243-1.358-1.863-2.037a4.456 4.456 0 0 0-.824-.736l-.015-.01c-.637-.413-1.189-.287-1.553.378-.37.675-.454 1.422-.491 2.175-.05 1.098-.382 1.387-1.485 1.437-2.356.111-4.593-.245-6.67-1.435-1.833-1.049-3.253-2.528-4.489-4.203C3.661 16.139 1.817 12.555.161 8.87c-.373-.83-.1-1.276.815-1.292 1.521-.03 3.042-.028 4.564-.002.619.009 1.027.363 1.266.947.822 2.023 1.829 3.949 3.093 5.732.336.476.679.949 1.168 1.284.541.37.953.247 1.206-.354.162-.382.233-.794.269-1.202.121-1.408.137-2.812-.075-4.213-.13-.876-.623-1.442-1.495-1.607-.446-.085-.38-.251-.164-.505.374-.439.727-.713 1.429-.713h5.269c.829.164 1.013.537 1.127 1.372l.004 5.852c-.01.323.161 1.282.743 1.495.465.153.772-.22 1.052-.515 1.262-1.339 2.162-2.922 2.965-4.56.357-.72.665-1.468.962-2.215.221-.555.565-.828 1.191-.816l5.07.004c.151 0 .303.002.448.028.855.145 1.089.512.826 1.347-.416 1.309-1.225 2.4-2.016 3.497-.846 1.169-1.749 2.3-2.589 3.477-.77 1.074-.709 1.616.247 2.549z" style="fill:var(--color5,#436eab)"/></symbol><symbol id="icon-vector-hero-main" viewBox="0 0 58 32"><path fill="#fff" d="M8.124 27.635c-3.44.363-5.894 2.421-8.124 2.732V0h58.371v16.688c-1.646-.387-8.089 6.081-11.754 7.384-5.393.882-2.091-3.424-14.709 2.68s-19.727.454-23.784.882z" style="fill:var(--color3,#fff)"/></symbol><symbol id="icon-cross1" viewBox="0 0 32 32"><path d="M31.708 25.708 22 16l9.708-9.708a1 1 0 0 0 0-1.414L27.122.292a1 1 0 0 0-1.414-.001L16 9.999 6.292.291a.998.998 0 0 0-1.414.001L.292 4.878a1 1 0 0 0 0 1.414L10 16 .292 25.708a.999.999 0 0 0 0 1.414l4.586 4.586a1 1 0 0 0 1.414 0L16 22l9.708 9.708a1 1 0 0 0 1.414 0l4.586-4.586a.999.999 0 0 0 0-1.414z"/></symbol></defs></svg>